<svg id="visual" viewBox="0 0 675 900" width="675" height="900" xmlns="http://www.w3.org/2000/svg" xmlns:xlink="http://www.w3.org/1999/xlink" version="1.1"><rect width="675" height="900" fill="#000000"></rect><g><g transform="translate(168 470)"><path d="M41.7 -45.3C50.5 -32.9 51.6 -16.5 51.2 -0.4C50.8 15.6 48.9 31.3 40.1 44.6C31.3 57.9 15.6 68.8 -1 69.8C-17.7 70.8 -35.4 62 -47 48.7C-58.6 35.4 -64.2 17.7 -62 2.1C-59.9 -13.5 -50.2 -27 -38.6 -39.4C-27 -51.8 -13.5 -63.1 1.5 -64.6C16.5 -66.1 32.9 -57.8 41.7 -45.3Z" fill="#ffffff"></path></g><g transform="translate(366 196)"><path d="M30.2 -31C37.4 -23 40.2 -11.5 39.6 -0.7C38.9 10.2 34.8 20.4 27.6 28.6C20.4 36.8 10.2 42.9 0.8 42.1C-8.6 41.4 -17.3 33.6 -24.9 25.4C-32.6 17.3 -39.2 8.6 -39.8 -0.5C-40.3 -9.7 -34.7 -19.4 -27 -27.3C-19.4 -35.2 -9.7 -41.4 0.9 -42.3C11.5 -43.2 23 -38.9 30.2 -31Z" fill="#ffffff"></path></g><g transform="translate(450 587)"><path d="M30.3 -30.4C37.2 -23.3 39.4 -11.7 38.4 -1.1C37.3 9.5 32.9 19.1 26 26.3C19.1 33.5 9.5 38.4 -0.8 39.2C-11.1 40 -22.3 36.7 -31.5 29.5C-40.7 22.3 -48 11.1 -47.8 0.3C-47.5 -10.5 -39.6 -21.1 -30.3 -28.2C-21.1 -35.3 -10.5 -38.9 0.6 -39.4C11.7 -40 23.3 -37.5 30.3 -30.4Z" fill="#ffffff"></path></g><g transform="translate(540 264)"><path d="M33.1 -30.1C41.6 -24.5 46.5 -12.2 45.9 -0.5C45.4 11.2 39.4 22.3 30.9 29.8C22.3 37.3 11.2 41.2 0.6 40.6C-10 40 -20 35 -27 27.5C-33.9 20 -37.8 10 -38.2 -0.4C-38.6 -10.8 -35.5 -21.6 -28.5 -27.2C-21.6 -32.8 -10.8 -33.2 0.7 -34C12.2 -34.7 24.5 -35.7 33.1 -30.1Z" fill="#ffffff"></path></g><g transform="translate(173 84)"><path d="M36.6 -39.8C44.2 -29.1 44.9 -14.5 44 -0.9C43.1 12.7 40.7 25.5 33.1 37.2C25.5 48.9 12.7 59.6 0 59.7C-12.8 59.7 -25.7 49.1 -37.5 37.4C-49.4 25.7 -60.4 12.8 -60.9 -0.6C-61.5 -13.9 -51.6 -27.9 -39.8 -38.6C-27.9 -49.4 -13.9 -57 0.3 -57.3C14.5 -57.6 29.1 -50.6 36.6 -39.8Z" fill="#ffffff"></path></g><g transform="translate(497 747)"><path d="M26.3 -27.1C33.9 -18.8 39.6 -9.4 39.2 -0.3C38.9 8.7 32.5 17.4 25 26.4C17.4 35.3 8.7 44.5 -1.3 45.8C-11.4 47.2 -22.7 40.6 -29 31.7C-35.3 22.7 -36.6 11.4 -36.3 0.3C-36 -10.8 -34.2 -21.6 -27.9 -29.9C-21.6 -38.3 -10.8 -44.2 -0.7 -43.5C9.4 -42.8 18.8 -35.5 26.3 -27.1Z" fill="#ffffff"></path></g><g transform="translate(198 793)"><path d="M17.4 -16.7C21.9 -13 24.3 -6.5 24.3 0.1C24.4 6.6 22.1 13.2 17.6 17C13.2 20.8 6.6 21.7 -0.2 21.9C-6.9 22 -13.8 21.4 -18.7 17.6C-23.6 13.8 -26.5 6.9 -26.6 0C-26.6 -7 -23.7 -13.9 -18.8 -17.7C-13.9 -21.5 -7 -22.1 -0.2 -21.8C6.5 -21.6 13 -20.5 17.4 -16.7Z" fill="#ffffff"></path></g><g transform="translate(94 649)"><path d="M24.9 -23.2C32.3 -17.5 38.3 -8.8 38.6 0.3C38.9 9.4 33.5 18.7 26.1 23.9C18.7 29.1 9.4 30.1 1.2 28.9C-7 27.8 -14 24.4 -20.2 19.2C-26.3 14 -31.6 7 -32.1 -0.6C-32.7 -8.1 -28.5 -16.3 -22.4 -21.9C-16.3 -27.6 -8.1 -30.8 0.3 -31.1C8.8 -31.4 17.5 -28.9 24.9 -23.2Z" fill="#ffffff"></path></g><g transform="translate(210 250)"><path d="M14.5 -14.7C17.9 -11.1 19.2 -5.5 19.9 0.7C20.6 7 20.8 14 17.4 18.7C14 23.5 7 26 0.4 25.6C-6.2 25.2 -12.4 21.9 -15.5 17.1C-18.7 12.4 -18.7 6.2 -17.8 0.9C-17 -4.4 -15.2 -8.9 -12 -12.5C-8.9 -16 -4.4 -18.7 0.5 -19.3C5.5 -19.8 11.1 -18.2 14.5 -14.7Z" fill="#ffffff"></path></g><g transform="translate(592 472)"><path d="M34.1 -35.1C40.9 -27.3 40.7 -13.7 39.9 -0.8C39.1 12 37.5 24 30.7 31.7C24 39.4 12 42.9 -0.4 43.3C-12.8 43.6 -25.5 40.9 -32.3 33.2C-39.2 25.5 -40.1 12.8 -39.9 0.1C-39.8 -12.5 -38.7 -25 -31.8 -32.8C-25 -40.7 -12.5 -43.8 0.6 -44.4C13.7 -44.9 27.3 -43 34.1 -35.1Z" fill="#ffffff"></path></g><g transform="translate(337 398)"><path d="M20.6 -20.4C27.1 -14.1 33 -7.1 33.6 0.6C34.3 8.3 29.6 16.6 23.1 22.5C16.6 28.4 8.3 31.9 0.2 31.7C-8 31.6 -16 27.8 -20.4 21.9C-24.8 16 -25.7 8 -25.4 0.2C-25.2 -7.5 -23.9 -15 -19.4 -21.3C-15 -27.7 -7.5 -32.8 -0.2 -32.6C7.1 -32.4 14.1 -26.8 20.6 -20.4Z" fill="#ffffff"></path></g><g transform="translate(268 604)"><path d="M16.1 -16.6C20.3 -11.8 22.8 -5.9 23.1 0.3C23.4 6.4 21.3 12.9 17.1 16.4C12.9 19.9 6.4 20.5 0.6 19.9C-5.2 19.2 -10.3 17.4 -15 13.8C-19.6 10.3 -23.8 5.2 -24.2 -0.4C-24.6 -6 -21.2 -11.9 -16.6 -16.6C-11.9 -21.4 -6 -24.9 0 -24.9C5.9 -24.8 11.8 -21.3 16.1 -16.6Z" fill="#ffffff"></path></g><g transform="translate(540 90)"><path d="M38.6 -42.4C46.5 -30.6 47 -15.3 47.5 0.5C48 16.3 48.4 32.6 40.5 40.3C32.6 48.1 16.3 47.2 1.2 46C-13.9 44.9 -27.9 43.4 -38 35.6C-48.1 27.9 -54.4 13.9 -52.9 1.5C-51.4 -11 -42.2 -22 -32.1 -33.8C-22 -45.6 -11 -58.2 2.2 -60.4C15.3 -62.5 30.6 -54.2 38.6 -42.4Z" fill="#ffffff"></path></g></g></svg>