<svg id="visual" viewBox="0 0 450 900" width="450" height="900" xmlns="http://www.w3.org/2000/svg" xmlns:xlink="http://www.w3.org/1999/xlink" version="1.1"><g stroke-width="1" stroke-linejoin="bevel"><path d="M216 558L160 694L311 582Z" fill="#ffffff" stroke="#ffffff"></path><path d="M160 694L275 770L311 582Z" fill="#000000" stroke="#000000"></path><path d="M324 399L127 514L216 558Z" fill="#919191" stroke="#919191"></path><path d="M216 558L127 514L160 694Z" fill="#5e5e5e" stroke="#5e5e5e"></path><path d="M450 758L450 616L311 582Z" fill="#ffffff" stroke="#ffffff"></path><path d="M311 582L324 399L216 558Z" fill="#474747" stroke="#474747"></path><path d="M275 770L450 758L311 582Z" fill="#ffffff" stroke="#ffffff"></path><path d="M450 616L450 514L311 582Z" fill="#000000" stroke="#000000"></path><path d="M127 514L0 598L160 694Z" fill="#919191" stroke="#919191"></path><path d="M160 694L183 900L275 770Z" fill="#919191" stroke="#919191"></path><path d="M0 780L183 900L160 694Z" fill="#474747" stroke="#474747"></path><path d="M275 770L364 900L450 758Z" fill="#919191" stroke="#919191"></path><path d="M450 514L324 399L311 582Z" fill="#919191" stroke="#919191"></path><path d="M0 598L0 780L160 694Z" fill="#ababab" stroke="#ababab"></path><path d="M183 900L364 900L275 770Z" fill="#919191" stroke="#919191"></path><path d="M127 514L0 494L0 598Z" fill="#303030" stroke="#303030"></path><path d="M0 364L0 494L127 514Z" fill="#5e5e5e" stroke="#5e5e5e"></path><path d="M364 900L450 900L450 758Z" fill="#ffffff" stroke="#ffffff"></path><path d="M450 230L257 306L324 399Z" fill="#474747" stroke="#474747"></path><path d="M324 399L257 306L127 514Z" fill="#5e5e5e" stroke="#5e5e5e"></path><path d="M0 780L0 900L183 900Z" fill="#474747" stroke="#474747"></path><path d="M146 282L0 364L127 514Z" fill="#919191" stroke="#919191"></path><path d="M257 306L146 282L127 514Z" fill="#303030" stroke="#303030"></path><path d="M450 514L450 230L324 399Z" fill="#ffffff" stroke="#ffffff"></path><path d="M257 306L203 172L146 282Z" fill="#474747" stroke="#474747"></path><path d="M321 140L203 172L257 306Z" fill="#c6c6c6" stroke="#c6c6c6"></path><path d="M146 282L0 172L0 364Z" fill="#ffffff" stroke="#ffffff"></path><path d="M450 230L321 140L257 306Z" fill="#919191" stroke="#919191"></path><path d="M203 172L0 172L146 282Z" fill="#5e5e5e" stroke="#5e5e5e"></path><path d="M0 0L0 172L203 172Z" fill="#5e5e5e" stroke="#5e5e5e"></path><path d="M450 230L450 127L321 140Z" fill="#ababab" stroke="#ababab"></path><path d="M321 140L239 0L203 172Z" fill="#5e5e5e" stroke="#5e5e5e"></path><path d="M450 0L239 0L321 140Z" fill="#474747" stroke="#474747"></path><path d="M239 0L207 0L203 172Z" fill="#777777" stroke="#777777"></path><path d="M450 127L450 0L321 140Z" fill="#c6c6c6" stroke="#c6c6c6"></path><path d="M207 0L0 0L203 172Z" fill="#1b1b1b" stroke="#1b1b1b"></path></g></svg>